<!DOCTYPE svg PUBLIC "-//W3C//DTD SVG 1.1//EN" "http://www.w3.org/Graphics/SVG/1.1/DTD/svg11.dtd">
<!-- Uploaded to: SVG Repo, www.svgrepo.com, Transformed by: SVG Repo Mixer Tools -->
<svg version="1.1" id="Layer_1" xmlns="http://www.w3.org/2000/svg" xmlns:xlink="http://www.w3.org/1999/xlink" viewBox="0 0 512 512" xml:space="preserve" width="64px" height="64px" fill="#000000">
<g id="SVGRepo_bgCarrier" stroke-width="0"/>
<g id="SVGRepo_tracerCarrier" stroke-linecap="round" stroke-linejoin="round"/>
<g id="SVGRepo_iconCarrier"> <path style="fill:#E84731;" d="M0,155.912v42.663h0.006c0.126,38.705,15.187,75.078,42.457,102.457l193.683,194.696 c5.273,5.284,12.406,8.258,19.854,8.258c7.446,0,14.579-2.975,19.851-8.258l193.681-194.696 c27.259-27.379,42.334-63.752,42.46-102.457H512v-42.663L0,155.912L0,155.912z"/> <path style="fill:#F9EEB7;" d="M256.001,459.519c-7.448,0-14.582-2.975-19.854-8.258L42.464,256.566 C15.078,229.07,0,192.505,0,153.616c0-38.891,15.078-75.464,42.464-102.958C69.844,23.163,106.244,8.013,144.982,8.013 c38.723,0,75.124,15.15,102.512,42.644l8.508,8.554l8.507-8.554c27.377-27.494,63.78-42.644,102.511-42.644 c38.726,0,75.128,15.15,102.515,42.644C496.91,78.152,512,114.725,512,153.616c0,38.89-15.09,75.454-42.467,102.951L275.852,451.261 C270.581,456.545,263.447,459.519,256.001,459.519z"/> <g style="opacity:0.1;"> <path d="M281.604,429.391L87.921,234.696c-27.387-27.496-42.464-64.062-42.464-102.951c0-38.89,15.077-75.464,42.464-102.957 c5.691-5.716,11.777-10.887,18.185-15.51c-23.838,6.62-45.682,19.343-63.643,37.379C15.078,78.152,0,114.725,0,153.616 c0,38.89,15.078,75.454,42.464,102.951l193.683,194.695c5.273,5.284,12.406,8.258,19.854,8.258c7.446,0,14.579-2.975,19.851-8.258 l15.451-15.531C287.702,434.325,284.391,432.185,281.604,429.391z"/> </g> <path style="fill:#FFAA99;" d="M64.686,234.458c-21.504-21.591-33.34-50.297-33.34-80.843c0-30.552,11.836-59.26,33.326-80.836 c21.462-21.551,49.983-33.418,80.309-33.418c30.318,0,58.836,11.868,80.305,33.419l8.49,8.537 c5.884,5.915,13.884,9.241,22.226,9.241c8.342,0,16.342-3.327,22.225-9.243l8.507-8.552c21.443-21.533,49.961-33.401,80.285-33.401 c30.32,0,58.84,11.868,80.306,33.419c21.491,21.583,33.329,50.293,33.329,80.835c0,30.536-11.838,59.244-33.333,80.834 L255.999,426.771L64.686,234.458z"/> <rect x="403.487" y="167.894" style="fill:#E84731;" width="16.316" height="43.51"/> <g> <path style="fill:#E26952;" d="M136.823,8.247v343.172l16.316,16.402V8.247c-2.707-0.149-5.426-0.234-8.159-0.234 C142.249,8.013,139.529,8.098,136.823,8.247z"/> <path style="fill:#E26952;" d="M0,153.616c0,5.39,0.3,10.732,0.872,16.014h510.254c0.573-5.283,0.874-10.625,0.874-16.014 c0-0.101-0.003-0.201-0.004-0.302H0.004C0.003,153.414,0,153.514,0,153.616z"/> </g> <g> <path style="fill:#E84731;" d="M86.523,230.905c-37.639,0-68.26-30.81-68.26-68.681s30.622-68.681,68.26-68.681 c37.639,0,68.262,30.81,68.262,68.681S124.162,230.905,86.523,230.905z M86.523,109.857c-28.643,0-51.945,23.491-51.945,52.366 s23.302,52.365,51.945,52.365s51.946-23.49,51.946-52.365S115.166,109.857,86.523,109.857z"/> <path style="fill:#E84731;" d="M205.41,230.905c-37.64,0-68.262-30.81-68.262-68.681s30.623-68.681,68.262-68.681 s68.262,30.81,68.262,68.681C273.672,200.095,243.05,230.905,205.41,230.905z M205.41,109.857 c-28.643,0-51.946,23.491-51.946,52.366s23.303,52.365,51.946,52.365s51.946-23.49,51.946-52.365S234.053,109.857,205.41,109.857z"/> </g> <g> <path style="fill:#FF8163;" d="M173.046,169.967c0,5.982-4.894,10.876-10.876,10.876h-32.405c-5.983,0-10.877-4.894-10.877-10.876 v-15.49c0-5.982,4.895-10.877,10.877-10.877h32.405c5.983,0,10.876,4.895,10.876,10.877V169.967z"/> <path style="fill:#FF8163;" d="M475.752,262.727l-59.443-59.803c-1.29-1.298-2.979-1.946-4.668-1.946 c-1.69,0-3.379,0.648-4.669,1.946l-59.444,59.803c-1.239,1.248-1.936,2.94-1.936,4.706v155.631c0,3.673,2.957,6.651,6.605,6.651 h118.885c3.648,0,6.605-2.979,6.605-6.651V267.432C477.69,265.667,476.993,263.975,475.752,262.727z M411.642,261.773 c-6.952,0-12.589-5.677-12.589-12.678c0-7.002,5.637-12.676,12.589-12.676c6.951,0,12.589,5.674,12.589,12.676 S418.592,261.773,411.642,261.773z"/> </g> <g style="opacity:0.1;"> <path d="M374.799,407.193c-3.648,0-6.605-2.979-6.605-6.651V244.91c0-1.765-20.664,17.817-20.664,17.817 c-1.239,1.248-1.936,2.94-1.936,4.706v155.631c0,3.673,2.957,6.651,6.605,6.651h118.885c3.648,0,6.605-2.979,6.605-6.651v-15.871 h-102.89V407.193z"/> </g> <path style="fill:#E84731;" d="M411.642,383.296c-1.077,0-2.111-0.437-2.87-1.216l-28.012-28.651 c-3.958-4.047-6.141-9.428-6.141-15.149c0-5.724,2.183-11.105,6.141-15.154c3.96-4.045,9.226-6.274,14.826-6.274 c5.598,0,10.866,2.229,14.825,6.274l1.231,1.26l1.229-1.26c3.961-4.045,9.224-6.274,14.826-6.274c5.6,0,10.867,2.229,14.826,6.274 c3.958,4.049,6.14,9.43,6.14,15.154c0,5.721-2.182,11.102-6.14,15.149l-28.012,28.651 C413.752,382.859,412.719,383.296,411.642,383.296z"/> </g>
</svg>