<!DOCTYPE svg PUBLIC "-//W3C//DTD SVG 1.1//EN" "http://www.w3.org/Graphics/SVG/1.1/DTD/svg11.dtd">
<!-- Uploaded to: SVG Repo, www.svgrepo.com, Transformed by: SVG Repo Mixer Tools -->
<svg height="79px" width="79px" version="1.1" id="Layer_1" xmlns="http://www.w3.org/2000/svg" xmlns:xlink="http://www.w3.org/1999/xlink" viewBox="0 0 512 512" xml:space="preserve" fill="#000000">
<g id="SVGRepo_bgCarrier" stroke-width="0"/>
<g id="SVGRepo_tracerCarrier" stroke-linecap="round" stroke-linejoin="round"/>
<g id="SVGRepo_iconCarrier"> <path style="fill:#A67C52;" d="M259.262,73.619c-4.415,0-7.989-3.577-7.989-7.99V50.743c-10.406-3.385-17.949-13.196-17.949-24.741 C233.324,11.665,244.962,0,259.262,0c14.303,0,25.941,11.665,25.941,26.002c0,4.414-3.579,7.991-7.991,7.991 c-4.415,0-7.99-3.578-7.99-7.991c0-5.525-4.467-10.02-9.959-10.02c-5.49,0-9.957,4.495-9.957,10.02 c0,5.525,4.467,10.021,9.957,10.021c4.415,0,7.991,3.578,7.991,7.991v21.614C267.254,70.042,263.677,73.619,259.262,73.619z"/> <path style="fill:#FFCCCF;" d="M422.713,408.803c0-92.398-74.64-167.301-166.713-167.301c-92.074,0-166.713,74.902-166.713,167.301 c0,0,0,70.097,0,70.428c0,18.098,14.519,32.769,32.431,32.769c11.17,0,21.024-5.709,26.856-14.398 C154.405,506.291,164.26,512,175.43,512c11.172,0,21.025-5.709,26.857-14.398c5.832,8.688,15.685,14.398,26.856,14.398 c11.172,0,21.025-5.709,26.857-14.398c5.832,8.688,15.685,14.398,26.856,14.398c11.172,0,21.024-5.709,26.857-14.398 c5.832,8.688,15.684,14.398,26.856,14.398c11.171,0,21.024-5.709,26.856-14.398c5.833,8.688,15.687,14.398,26.857,14.398 c17.913,0,32.43-14.67,32.43-32.769C422.713,478.9,422.713,408.803,422.713,408.803z"/> <g style="opacity:0.1;"> <path d="M122.813,479.231c0-0.331,0-70.428,0-70.428c0-86.719,65.75-158.025,149.951-166.462 c-5.514-0.553-11.106-0.839-16.764-0.839c-92.074,0-166.713,74.902-166.713,167.301c0,0,0,70.097,0,70.428 c0,18.098,14.519,32.769,32.431,32.769c6.133,0,11.863-1.729,16.754-4.719C129.086,501.54,122.813,491.125,122.813,479.231z"/> </g> <path style="fill:#FFBAC5;" d="M256,241.503c-92.074,0-166.713,74.902-166.713,167.301c0,11.06,0,19.566,0,19.681 c0,18.098,14.519,32.769,32.431,32.769c11.17,0,21.024-5.708,26.856-14.398c5.832,8.688,15.687,14.398,26.856,14.398 c11.172,0,21.025-5.708,26.857-14.398c5.832,8.688,15.685,14.398,26.856,14.398c11.172,0,21.025-5.708,26.857-14.398 c5.832,8.688,15.685,14.398,26.856,14.398c11.172,0,21.024-5.708,26.857-14.398c5.832,8.688,15.684,14.398,26.856,14.398 c11.171,0,21.024-5.708,26.856-14.398c5.833,8.688,15.687,14.398,26.857,14.398c17.913,0,32.431-14.671,32.431-32.769 c0-0.115,0-8.62,0-19.681C422.713,316.406,348.073,241.503,256,241.503z"/> <g style="opacity:0.1;"> <path d="M122.813,428.483c0-0.115,0-8.62,0-19.681c0-86.719,65.75-158.025,149.951-166.462c-5.514-0.553-11.106-0.839-16.764-0.839 c-92.074,0-166.713,74.902-166.713,167.301c0,11.06,0,19.566,0,19.681c0,18.098,14.519,32.769,32.431,32.769 c6.133,0,11.863-1.729,16.754-4.719C129.086,450.792,122.813,440.378,122.813,428.483z"/> </g> <path style="fill:#966C45;" d="M359.329,116.407c-2.049,0-4.098-0.784-5.66-2.351c-25.219-25.307-58.745-39.245-94.405-39.245 s-69.187,13.938-94.407,39.245c-3.115,3.125-8.174,3.136-11.301,0.02c-3.126-3.115-3.135-8.175-0.021-11.301 c28.239-28.34,65.789-43.945,105.728-43.945s77.488,15.606,105.728,43.945c3.114,3.126,3.106,8.186-0.021,11.301 C363.411,115.63,361.37,116.407,359.329,116.407z"/> <g> <path style="fill:#F49889;" d="M207.592,128.068c0,3.003-2.447,5.459-5.436,5.459h-11.967c-2.992,0-5.439-2.456-5.439-5.459V70.213 c0-3.002,2.447-5.458,5.439-5.458h11.967c2.988,0,5.436,2.456,5.436,5.458V128.068z"/> <path style="fill:#F49889;" d="M333.777,128.068c0,3.003-2.447,5.459-5.441,5.459h-11.965c-2.989,0-5.438-2.456-5.438-5.459V70.213 c0-3.002,2.448-5.458,5.438-5.458h11.965c2.994,0,5.441,2.456,5.441,5.458V128.068z"/> </g> <path id="SVGCleanerId_0" style="fill:#FFCCCF;" d="M222.516,231.581h73.494l35.825-35.982c9.303-9.338,14.433-21.756,14.433-34.963 c0-13.206-5.129-25.623-14.433-34.961c-9.307-9.339-21.677-14.483-34.84-14.483c-13.163,0-25.537,5.144-34.842,14.483l-2.892,2.902 l-2.89-2.902c-9.307-9.339-21.68-14.483-34.842-14.483c-13.163,0-25.535,5.144-34.84,14.483 c-9.306,9.338-14.433,21.755-14.433,34.961c0,13.208,5.126,25.624,14.433,34.963L222.516,231.581z"/> <g> <path id="SVGCleanerId_0_1_" style="fill:#FFCCCF;" d="M222.516,231.581h73.494l35.825-35.982 c9.303-9.338,14.433-21.756,14.433-34.963c0-13.206-5.129-25.623-14.433-34.961c-9.307-9.339-21.677-14.483-34.84-14.483 c-13.163,0-25.537,5.144-34.842,14.483l-2.892,2.902l-2.89-2.902c-9.307-9.339-21.68-14.483-34.842-14.483 c-13.163,0-25.535,5.144-34.84,14.483c-9.306,9.338-14.433,21.755-14.433,34.961c0,13.208,5.126,25.624,14.433,34.963 L222.516,231.581z"/> </g> <g style="opacity:0.1;"> <path d="M193.794,160.635c0-13.206,5.126-25.623,14.433-34.961c6.712-6.736,15.024-11.275,24.071-13.291 c-3.496-0.778-7.099-1.192-10.768-1.192c-13.163,0-25.535,5.144-34.84,14.483c-9.306,9.338-14.433,21.755-14.433,34.961 c0,13.208,5.126,25.624,14.433,34.963l35.825,35.982h21.535l-35.825-35.982C198.92,186.259,193.794,173.843,193.794,160.635z"/> </g> <path style="fill:#FF8163;" d="M308.214,235.971c0,5.86-4.796,10.655-10.656,10.655h-76.59c-5.859,0-10.654-4.795-10.654-10.655 v-2.706c0-5.86,4.795-10.654,10.654-10.654h76.59c5.86,0,10.656,4.794,10.656,10.654V235.971z"/> <path style="fill:#FFEAD7;" d="M259.264,258.517c-1.232,0-2.413-0.491-3.283-1.364l-19.198-19.265c-1.802-1.808-1.802-4.733,0-6.541 l19.196-19.264c0.869-0.872,2.051-1.364,3.283-1.364s2.413,0.491,3.283,1.364l19.198,19.264c1.802,1.808,1.802,4.733,0,6.541 l-19.196,19.265C261.677,258.026,260.496,258.517,259.264,258.517z"/> </g>
</svg>