<!DOCTYPE svg PUBLIC "-//W3C//DTD SVG 1.1//EN" "http://www.w3.org/Graphics/SVG/1.1/DTD/svg11.dtd">
<!-- Uploaded to: SVG Repo, www.svgrepo.com, Transformed by: SVG Repo Mixer Tools -->
<svg height="64px" width="64px" version="1.1" id="Layer_1" xmlns="http://www.w3.org/2000/svg" xmlns:xlink="http://www.w3.org/1999/xlink" viewBox="0 0 512 512" xml:space="preserve" fill="#000000">
<g id="SVGRepo_bgCarrier" stroke-width="0"/>
<g id="SVGRepo_tracerCarrier" stroke-linecap="round" stroke-linejoin="round"/>
<g id="SVGRepo_iconCarrier"> <g> <path style="fill:#BF953E;" d="M183.695,317.516c0.286-0.645,0.451-1.353,0.451-2.1v-20.827c0-2.873-2.351-5.224-5.224-5.224 h-45.845c-2.873,0-5.224,2.351-5.224,5.224v20.827c0,0.747,0.165,1.457,0.451,2.1H183.695z"/> <polygon style="fill:#BF953E;" points="176.77,374.86 135.229,374.86 114.459,410.839 135.229,446.818 176.77,446.818 197.541,410.839 "/> </g> <g> <path style="fill:#EFBA50;" d="M178.922,258.086h-45.845c-2.873,0-5.224,2.351-5.224,5.224v20.827c0,2.873,2.351,5.224,5.224,5.224 h45.845c2.873,0,5.224-2.351,5.224-5.224V263.31C184.146,260.437,181.795,258.086,178.922,258.086z"/> <path style="fill:#EFBA50;" d="M378.925,136.081H333.08c-2.873,0-5.224,2.351-5.224,5.225v20.827c0,2.873,2.351,5.224,5.224,5.224 h45.845c2.873,0,5.224-2.351,5.224-5.224v-20.827C384.149,138.432,381.798,136.081,378.925,136.081z"/> </g> <path style="opacity:0.1;enable-background:new ;" d="M150.003,317.516c-0.286-0.645-0.451-1.353-0.451-2.1v-20.827 c0-2.873,2.351-5.224,5.224-5.224h-21.699c-2.873,0-5.224,2.351-5.224,5.224v20.827c0,0.747,0.165,1.457,0.451,2.1H150.003z"/> <path style="opacity:0.1;enable-background:new ;" d="M149.552,284.136v-20.827c0-2.873,2.351-5.224,5.224-5.224h-21.699 c-2.873,0-5.224,2.351-5.224,5.224v20.827c0,2.873,2.351,5.224,5.224,5.224h21.699C151.903,289.36,149.552,287.009,149.552,284.136z "/> <path style="opacity:0.1;enable-background:new ;" d="M349.127,162.133v-20.827c0-2.873,2.351-5.225,5.224-5.225H333.08 c-2.873,0-5.224,2.351-5.224,5.225v20.827c0,2.873,2.351,5.224,5.224,5.224h21.272C351.478,167.357,349.127,165.006,349.127,162.133 z"/> <path style="fill:#D69EF0;" d="M305.135,382.159c-1.862,0-3.583-0.994-4.514-2.607l-50.866-88.111c-0.931-1.612-0.931-3.6,0-5.213 l50.866-88.111c0.931-1.613,2.653-2.607,4.514-2.607h101.733c1.862,0,3.583,0.994,4.514,2.607l50.867,88.111 c0.931,1.612,0.931,3.6,0,5.213l-50.867,88.111c-0.931,1.612-2.652,2.607-4.514,2.607L305.135,382.159L305.135,382.159z"/> <g> <path style="fill:#BC81E2;" d="M304.917,195.89c-1.862,0-3.583,0.994-4.514,2.607l-50.647,87.733 c-0.56,0.971-0.777,2.076-0.662,3.155l5.177-0.548h60.191l20.77-35.979h5.582l-31.381-54.36 C308.501,196.884,306.779,195.89,304.917,195.89z"/> <path style="fill:#BC81E2;" d="M397.543,288.836l-20.77,35.979h-5.749l31.466,54.506c0.931,1.613,2.652,2.607,4.514,2.607 c1.862,0,3.584-0.994,4.514-2.607l50.732-87.878c0.465-0.806,0.698-1.706,0.698-2.606h-65.404V288.836z"/> </g> <g> <path style="fill:#8F5DAF;" d="M314.461,288.836h-60.191l-5.177,0.547c0.075,0.714,0.292,1.416,0.662,2.058l50.647,87.733 c0.931,1.612,2.653,2.607,4.514,2.607c1.862,0,3.584-0.994,4.515-2.607l31.381-54.36h-5.582L314.461,288.836z"/> <path style="fill:#8F5DAF;" d="M462.249,286.229l-50.732-87.878c-0.931-1.612-2.652-2.607-4.514-2.607s-3.583,0.994-4.514,2.607 l-31.466,54.506h5.749l20.77,35.979h65.404C462.948,287.936,462.715,287.036,462.249,286.229z"/> </g> <path style="fill:#BF953E;" d="M383.698,195.512c0.285-0.645,0.451-1.352,0.451-2.1v-20.827c0-2.873-2.351-5.224-5.224-5.224H333.08 c-2.873,0-5.224,2.351-5.224,5.224v20.827c0,0.747,0.165,1.456,0.451,2.1L383.698,195.512L383.698,195.512z"/> <polygon style="fill:#B9F5ED;" points="376.772,252.857 335.231,252.857 314.461,288.836 335.231,324.814 376.772,324.814 397.543,288.836 "/> <path style="opacity:0.1;enable-background:new ;" d="M333.069,379.553l-50.866-88.111c-0.931-1.612-0.931-3.6,0-5.213 l50.866-88.111c0.931-1.613,2.653-2.607,4.514-2.607h-32.449c-1.862,0-3.583,0.994-4.514,2.607l-50.866,88.111 c-0.931,1.612-0.931,3.6,0,5.213l50.866,88.111c0.931,1.612,2.653,2.607,4.514,2.607h32.449 C335.722,382.159,334,381.165,333.069,379.553z"/> <polygon style="opacity:0.1;enable-background:new ;" points="356.693,252.857 335.231,252.857 314.461,288.836 335.231,324.814 356.693,324.814 335.922,288.836 "/> <path style="fill:#D69EF0;" d="M105.133,504.163c-1.862,0-3.583-0.994-4.514-2.607l-50.867-88.111c-0.931-1.612-0.931-3.6,0-5.213 l50.867-88.11c0.931-1.613,2.652-2.607,4.514-2.607h101.733c1.862,0,3.583,0.994,4.514,2.607l50.866,88.11 c0.931,1.613,0.931,3.601,0,5.213l-50.866,88.111c-0.931,1.612-2.653,2.607-4.514,2.607H105.133z"/> <g> <path style="fill:#8F5DAF;" d="M262.247,408.232l-50.732-87.878c-0.931-1.612-2.652-2.607-4.514-2.607s-3.583,0.994-4.514,2.607 l-31.466,54.506h5.75l20.77,35.979h60.023h5.38C262.945,409.94,262.712,409.039,262.247,408.232z"/> <path style="fill:#8F5DAF;" d="M114.459,410.839H54.266l-5.125,0.897c0.103,0.592,0.301,1.172,0.61,1.709l50.648,87.733 c0.931,1.612,2.652,2.607,4.514,2.607s3.583-0.994,4.514-2.607l31.382-54.36h-5.582L114.459,410.839z"/> </g> <g> <path style="fill:#BC81E2;" d="M257.565,410.839h-60.023l-20.77,35.979h-5.749l31.466,54.506c0.931,1.612,2.652,2.607,4.514,2.607 c1.862,0,3.583-0.994,4.514-2.607l50.732-87.878c0.466-0.807,0.699-1.706,0.699-2.607L257.565,410.839L257.565,410.839z"/> <path style="fill:#BC81E2;" d="M104.915,317.893c-1.862,0-3.583,0.994-4.514,2.607l-50.648,87.732 c-0.621,1.076-0.818,2.317-0.61,3.504l5.125-0.897h60.191l20.77-35.979h5.582l-31.382-54.36 C108.498,318.888,106.777,317.893,104.915,317.893z"/> </g> <path style="opacity:0.1;enable-background:new ;" d="M133.067,501.556l-50.867-88.111c-0.931-1.612-0.931-3.6,0-5.213 l50.867-88.11c0.931-1.613,2.652-2.607,4.514-2.607h-32.449c-1.862,0-3.583,0.994-4.514,2.607l-50.867,88.11 c-0.931,1.613-0.931,3.601,0,5.213l50.867,88.111c0.931,1.612,2.652,2.607,4.514,2.607h32.449 C135.719,504.163,133.998,503.17,133.067,501.556z"/> <polygon style="fill:#B9F5ED;" points="135.229,446.818 114.459,410.839 135.229,374.86 176.77,374.86 197.541,410.839 176.77,446.818 "/> <polygon style="opacity:0.1;enable-background:new ;" points="157.117,374.86 135.229,374.86 114.459,410.839 135.229,446.818 157.117,446.818 136.346,410.839 "/> <path d="M469.036,282.312l-21.069-36.496c-2.164-3.748-6.958-5.032-10.705-2.869c-3.748,2.164-5.033,6.957-2.869,10.705 l15.787,27.348h-48.113l-18.508-32.061c-0.197-0.343-0.425-0.661-0.668-0.965l24.112-41.767l13.514,23.408 c2.164,3.749,6.956,5.033,10.705,2.868c3.748-2.164,5.032-6.957,2.868-10.705l-15.92-27.577c-2.324-4.025-6.654-6.525-11.301-6.525 h-14.883v-46.369c0-7.202-5.859-13.061-13.061-13.061h-15.086V97.043c23.213-3.761,40.996-23.947,40.996-48.207 C404.835,21.907,382.929,0,356.002,0c-26.926,0-48.832,21.907-48.832,48.835c0,4.328,3.509,7.837,7.837,7.837 c4.328,0,7.837-3.509,7.837-7.837c0-18.286,14.875-33.162,33.159-33.162S389.16,30.55,389.16,48.835s-14.875,33.163-33.159,33.163 c-4.328,0-7.837,3.509-7.837,7.837v38.409h-15.086c-7.202,0-13.061,5.859-13.061,13.061v46.369h-14.884 c-4.647,0-8.978,2.5-11.301,6.525l-50.866,88.11c-2.324,4.025-2.324,9.025,0,13.049l50.866,88.111 c2.324,4.025,6.654,6.525,11.301,6.525h101.733c4.647,0,8.978-2.5,11.301-6.525l50.867-88.11 C471.359,291.335,471.359,286.335,469.036,282.312z M388.494,288.836l-16.246,28.142h-32.492l-16.246-28.142l16.246-28.142h32.492 L388.494,288.836z M335.692,143.918h40.62v15.602h-40.62V143.918z M335.692,175.197h40.62v12.478h-40.62V175.197z M390.555,203.349 l-24.057,41.672h-21.16l-24.057-41.672H390.555z M304.918,206.351l24.095,41.739c-0.206,0.269-0.396,0.551-0.567,0.848 l-18.508,32.061h-48.112L304.918,206.351z M304.917,371.319l-43.094-74.648h48.112l18.508,32.061 c0.171,0.298,0.363,0.58,0.567,0.848L304.917,371.319z M321.281,374.322l24.057-41.672h21.16l24.057,41.672H321.281z M407.003,371.465l-24.112-41.767c0.242-0.305,0.47-0.624,0.668-0.967l18.508-32.061h48.112L407.003,371.465z"/> <path d="M115.004,178.676c4.328,0,7.837-3.509,7.837-7.837c0-18.286,14.875-33.162,33.159-33.162s33.159,14.876,33.159,33.161 c-0.001,4.237-0.787,8.361-2.336,12.258c-1.6,4.022,0.365,8.579,4.386,10.178c0.95,0.377,1.93,0.557,2.893,0.557 c3.116,0,6.064-1.871,7.285-4.942c2.286-5.747,3.445-11.82,3.445-18.049c0-26.928-21.906-48.835-48.832-48.835 s-48.832,21.907-48.832,48.835C107.168,175.168,110.676,178.676,115.004,178.676z"/> <path d="M218.168,316.205c-2.323-4.026-6.654-6.526-11.302-6.526h-14.884v-46.369c0-7.202-5.859-13.061-13.061-13.061h-15.086 v-31.205c5.872-0.952,11.54-2.97,16.694-5.97c3.741-2.177,5.008-6.975,2.831-10.715c-2.177-3.741-6.976-5.009-10.715-2.831 c-5.029,2.927-10.784,4.474-16.646,4.474c-4.328,0-7.837,3.509-7.837,7.837v38.409h-15.086c-7.202,0-13.061,5.859-13.061,13.061 v46.369h-14.884c-4.648,0-8.979,2.5-11.301,6.525l-50.867,88.111c-2.323,4.025-2.323,9.025,0,13.049l50.867,88.111 c2.324,4.025,6.654,6.525,11.301,6.525h101.733c4.647,0,8.978-2.5,11.301-6.525l9.052-15.679c2.164-3.748,0.88-8.541-2.869-10.705 c-3.748-2.164-8.542-0.88-10.705,2.869l-6.645,11.51l-24.112-41.767c0.242-0.304,0.47-0.623,0.668-0.965l18.508-32.061h48.113 l-22.66,39.251c-2.164,3.748-0.879,8.541,2.869,10.705c3.746,2.162,8.541,0.879,10.705-2.869l27.94-48.399 c2.324-4.024,2.324-9.024,0-13.05L218.168,316.205z M135.689,265.922h40.62v15.602h-40.62V265.922z M135.689,297.201h40.62v12.478 h-40.62V297.201z M190.552,325.353l-24.057,41.672h-21.159l-24.057-41.672H190.552z M104.915,328.356l24.095,41.738 c-0.206,0.269-0.396,0.551-0.568,0.849l-18.508,32.06H61.82L104.915,328.356z M104.915,493.323L61.82,418.676h48.113l18.508,32.061 c0.172,0.298,0.363,0.581,0.568,0.849L104.915,493.323z M190.552,496.327h-69.275l24.057-41.672h21.16L190.552,496.327z M202.065,403.003l-0.261-0.452c-2.165-3.748-6.957-5.032-10.705-2.867c-3.748,2.164-5.032,6.957-2.867,10.705l0.26,0.451 l-16.246,28.142h-32.492l-16.246-28.142l16.246-28.142h32.492l2.713,4.699c2.165,3.749,6.958,5.033,10.705,2.868 c3.748-2.164,5.032-6.957,2.868-10.705l-4.975-8.617c-0.197-0.343-0.425-0.661-0.668-0.966l24.112-41.767l43.178,74.793H202.065z"/> <path style="opacity:0.1;enable-background:new ;" d="M349.579,195.512c-0.285-0.645-0.451-1.352-0.451-2.1v-20.827 c0-2.873,2.351-5.224,5.224-5.224H333.08c-2.873,0-5.224,2.351-5.224,5.224v20.827c0,0.747,0.165,1.456,0.451,2.1L349.579,195.512 L349.579,195.512z"/> </g>
</svg>