<!DOCTYPE svg PUBLIC "-//W3C//DTD SVG 1.1//EN" "http://www.w3.org/Graphics/SVG/1.1/DTD/svg11.dtd">
<!-- Uploaded to: SVG Repo, www.svgrepo.com, Transformed by: SVG Repo Mixer Tools -->
<svg version="1.1" id="Layer_1" xmlns="http://www.w3.org/2000/svg" xmlns:xlink="http://www.w3.org/1999/xlink" viewBox="0 0 512.001 512.001" xml:space="preserve" width="64px" height="64px" fill="#000000">
<g id="SVGRepo_bgCarrier" stroke-width="0"/>
<g id="SVGRepo_tracerCarrier" stroke-linecap="round" stroke-linejoin="round"/>
<g id="SVGRepo_iconCarrier"> <path style="fill:#F9EEB7;" d="M94.15,253.125v248.068c0,5.945,4.865,10.809,10.809,10.809h302.08 c5.945,0,10.809-4.864,10.809-10.809V253.125H94.15z"/> <path style="fill:#85CCA2;" d="M270.849,163.457l28.999,14.004h59.192v-55.887c0-2.973-2.191-4.347-4.868-3.054l-83.324,40.237 C268.172,160.049,268.172,162.164,270.849,163.457z"/> <path style="fill:#AADDC0;" d="M218.113,253.125c-0.01,0.131-0.04,0.258-0.04,0.391v253.08c0,2.973,2.432,5.405,5.405,5.405h65.045 c2.973,0,5.405-2.432,5.405-5.405v-253.08c0-0.134-0.03-0.26-0.041-0.391H218.113z"/> <path style="fill:#85CCA2;" d="M212.153,177.461l29-14.004c2.676-1.293,2.676-3.408,0-4.701l-83.326-40.237 c-2.677-1.293-4.867,0.082-4.867,3.054v55.887L212.153,177.461L212.153,177.461z"/> <path style="fill:#AADDC0;" d="M289.978,144.494c0-5.945-4.865-10.809-10.809-10.809h-46.336c-5.945,0-10.809,4.864-10.809,10.809 v32.966h67.955v-32.966H289.978z"/> <path style="opacity:0.1;enable-background:new ;" d="M127.966,501.191V253.125H94.15v248.068 c0,5.945,4.865,10.809,10.809,10.809h33.815C132.83,512,127.966,507.136,127.966,501.191z"/> <path style="fill:#85CCA2;" d="M418.082,342.694c2.973,0,5.405,2.432,5.405,5.405v63.916c0,2.973-2.432,5.405-5.405,5.405H93.919 c-2.973,0-5.405-2.432-5.405-5.405v-63.916c0-2.973,2.432-5.405,5.405-5.405H418.082z"/> <path style="opacity:0.1;enable-background:new ;" d="M122.331,412.014v-63.916c0-2.973,2.432-5.405,5.404-5.405H93.919 c-2.973,0-5.405,2.432-5.405,5.405v63.916c0,2.973,2.432,5.405,5.405,5.405h33.815C124.764,417.419,122.331,414.986,122.331,412.014 z"/> <path style="fill:#FF8163;" d="M447.012,247.121c0,5.944-4.864,10.808-10.808,10.808H75.797c-5.945,0-10.808-4.864-10.808-10.808 v-64.915c0-5.944,4.864-10.809,10.808-10.809h360.406c5.945,0,10.808,4.864,10.808,10.809v64.915H447.012z"/> <path style="opacity:0.1;enable-background:new ;" d="M98.804,247.121v-64.915c0-5.944,4.865-10.809,10.809-10.809H75.797 c-5.945,0-10.808,4.864-10.808,10.809v64.915c0,5.944,4.864,10.808,10.808,10.808h33.816 C103.669,257.93,98.804,253.066,98.804,247.121z"/> <path style="fill:#E84731;" d="M256.001,462.019c-2.57,0-5.038-1.017-6.859-2.837l-66.924-66.798 c-9.462-9.43-14.672-21.976-14.672-35.32c0-13.343,5.21-25.889,14.674-35.324c9.459-9.435,22.04-14.633,35.42-14.633 c13.382,0,25.962,5.198,35.42,14.633l2.941,2.936l2.94-2.936c9.463-9.435,22.039-14.633,35.425-14.633 c13.38,0,25.957,5.198,35.424,14.633c9.454,9.435,14.667,21.981,14.667,35.324c0,13.345-5.213,25.889-14.667,35.326l-66.927,66.793 C261.043,461.002,258.575,462.019,256.001,462.019z"/> <g style="opacity:0.1;"> <path d="M271.66,448.092l-66.923-66.798c-9.462-9.431-14.672-21.975-14.672-35.321c0-13.343,5.21-25.889,14.674-35.324 c0.881-0.879,1.797-1.708,2.73-2.512c-9.501,1.945-18.235,6.604-25.25,13.602c-9.464,9.435-14.674,21.981-14.674,35.324 c0,13.345,5.21,25.889,14.672,35.32l66.924,66.798c1.821,1.82,4.289,2.837,6.859,2.837c2.574,0,5.042-1.017,6.86-2.837l10.06-10.04 C272.477,448.827,272.051,448.482,271.66,448.092z"/> </g> <g> <path style="fill:#FFC529;" d="M230.186,76.697c-9.405,6.516-15.48,12.586-22.001,21.986c-1.379,1.988-4.313,1.988-5.692,0 c-6.522-9.4-12.596-15.47-22.002-21.986c-1.99-1.379-1.99-4.316,0-5.695c9.406-6.516,15.48-12.586,22.002-21.986 c1.379-1.988,4.313-1.988,5.692,0c6.522,9.4,12.596,15.47,22.001,21.986C232.176,72.382,232.176,75.318,230.186,76.697z"/> <path style="fill:#FFC529;" d="M253.917,35.715l-14.92-14.907c-1.352-1.35-1.352-3.541,0-4.89l14.917-14.906 c1.35-1.349,3.536-1.349,4.886,0l14.918,14.906c1.351,1.35,1.352,3.54,0,4.89L258.8,35.715 C257.453,37.064,255.266,37.064,253.917,35.715z"/> <path style="fill:#FFC529;" d="M313.53,101.605l-14.918-14.906c-1.351-1.35-1.352-3.54,0-4.89l14.917-14.906 c1.35-1.349,3.536-1.349,4.887,0l14.919,14.907c1.351,1.35,1.351,3.541,0,4.89l-14.917,14.906 C317.067,102.955,314.88,102.955,313.53,101.605z"/> </g> <g> <path style="fill:#FFA08D;" d="M367.667,257.93l78.881-78.841c-1.348-4.436-5.483-7.691-10.344-7.691h-4.896l-86.576,86.532 H367.667z"/> <polygon style="fill:#FFA08D;" points="310.303,257.93 396.881,171.397 373.945,171.397 287.367,257.93 "/> <polygon style="fill:#FFA08D;" points="230.011,257.93 252.945,257.93 339.522,171.397 316.586,171.397 "/> <polygon style="fill:#FFA08D;" points="172.651,257.93 195.585,257.93 282.161,171.397 259.228,171.397 "/> <polygon style="fill:#FFA08D;" points="138.225,257.93 224.8,171.397 201.865,171.397 115.29,257.93 "/> <path style="fill:#FFA08D;" d="M144.502,171.397l-79.01,78.973c1.387,4.369,5.491,7.559,10.304,7.559h5.068l86.573-86.532 L144.502,171.397L144.502,171.397z"/> </g> <rect x="212.77" y="171.392" style="fill:#85CCA2;" width="86.476" height="86.529"/> </g>
</svg>