<!DOCTYPE svg PUBLIC "-//W3C//DTD SVG 1.1//EN" "http://www.w3.org/Graphics/SVG/1.1/DTD/svg11.dtd">
<!-- Uploaded to: SVG Repo, www.svgrepo.com, Transformed by: SVG Repo Mixer Tools -->
<svg height="64px" width="64px" version="1.1" id="Layer_1" xmlns="http://www.w3.org/2000/svg" xmlns:xlink="http://www.w3.org/1999/xlink" viewBox="0 0 511.999 511.999" xml:space="preserve" fill="#000000">
<g id="SVGRepo_bgCarrier" stroke-width="0"/>
<g id="SVGRepo_tracerCarrier" stroke-linecap="round" stroke-linejoin="round"/>
<g id="SVGRepo_iconCarrier"> <path style="fill:#E4AAA9;" d="M318.207,124.202H193.793c-7.334,52.414-33.848,121.19-85.228,131.561v227.643h294.869V255.763 C352.055,245.392,325.541,176.617,318.207,124.202z"/> <path d="M498.597,268.96c-0.885,0-1.757-0.094-2.627-0.268c-0.859-0.174-1.704-0.429-2.506-0.764 c-0.806-0.335-1.582-0.751-2.319-1.233c-0.724-0.481-1.421-1.044-2.037-1.662c-0.617-0.617-1.166-1.3-1.662-2.037 c-0.483-0.724-0.898-1.501-1.233-2.319c-0.335-0.804-0.59-1.647-0.764-2.505c-0.174-0.859-0.253-1.744-0.253-2.614 c0-0.871,0.08-1.757,0.253-2.627c0.174-0.844,0.429-1.689,0.764-2.506c0.335-0.806,0.751-1.582,1.233-2.305 c0.496-0.739,1.045-1.422,1.662-2.039c0.617-0.63,1.312-1.179,2.037-1.675c0.739-0.483,1.515-0.898,2.319-1.233 c0.804-0.335,1.647-0.59,2.506-0.764c1.729-0.348,3.512-0.348,5.241,0c0.858,0.174,1.702,0.429,2.505,0.764 c0.806,0.335,1.583,0.751,2.319,1.233c0.724,0.496,1.407,1.045,2.037,1.675c0.618,0.617,1.181,1.3,1.662,2.039 c0.482,0.724,0.898,1.5,1.233,2.305c0.335,0.818,0.59,1.662,0.764,2.506c0.174,0.87,0.268,1.756,0.268,2.627 c0,0.87-0.094,1.756-0.268,2.614c-0.174,0.858-0.429,1.702-0.764,2.505c-0.335,0.818-0.751,1.595-1.233,2.319 c-0.481,0.737-1.044,1.421-1.662,2.037c-0.63,0.618-1.312,1.181-2.037,1.662c-0.737,0.483-1.515,0.898-2.319,1.233 s-1.647,0.59-2.505,0.764C500.353,268.866,499.467,268.96,498.597,268.96z"/> <path d="M13.403,268.96c-3.525,0-6.983-1.434-9.476-3.928c-0.617-0.617-1.179-1.3-1.662-2.037c-0.483-0.724-0.898-1.501-1.233-2.319 c-0.335-0.804-0.59-1.647-0.764-2.505C0.094,257.311,0,256.427,0,255.557c0-0.871,0.094-1.757,0.268-2.627 c0.174-0.844,0.429-1.689,0.764-2.506c0.335-0.806,0.751-1.582,1.233-2.305c0.483-0.739,1.045-1.422,1.662-2.039 c3.11-3.123,7.747-4.544,12.103-3.672c0.858,0.174,1.702,0.429,2.506,0.764c0.804,0.335,1.582,0.751,2.319,1.233 c0.724,0.496,1.421,1.045,2.037,1.675c0.617,0.617,1.166,1.3,1.662,2.039c0.483,0.724,0.898,1.5,1.233,2.305 c0.335,0.818,0.59,1.662,0.764,2.506c0.174,0.87,0.255,1.756,0.255,2.627c0,0.87-0.08,1.756-0.255,2.614 c-0.174,0.858-0.429,1.702-0.764,2.505c-0.335,0.818-0.751,1.595-1.233,2.319c-0.496,0.737-1.059,1.421-1.675,2.037 C20.386,267.526,16.942,268.96,13.403,268.96z"/> <path style="fill:#E0315B;" d="M263.451,433.655h-14.902c-40.299,0-72.968-32.669-72.968-72.968v-47.885h160.838v47.887 C336.419,400.987,303.75,433.655,263.451,433.655z"/> <path d="M263.452,447.06h-14.903c-47.625,0-86.371-38.746-86.371-86.371v-47.887c0-7.401,6.001-13.403,13.403-13.403h160.838 c7.401,0,13.403,6.002,13.403,13.403v47.887C349.822,408.314,311.076,447.06,263.452,447.06z M188.984,326.205v34.484 c0,32.844,26.721,59.565,59.565,59.565h14.903c32.844,0,59.564-26.722,59.564-59.565v-34.484H188.984z"/> <path d="M458.382,242.15h-54.259c-37.562-9.145-62.166-60.171-71.129-110.336v-39.63c0-42.456-34.54-76.994-76.994-76.994 s-76.994,34.54-76.994,76.994v39.63c-8.963,50.165-33.567,101.191-71.129,110.336h-54.26c-7.403,0-13.403,6.002-13.403,13.403 c0,7.401,6.001,13.403,13.403,13.403h41.546v214.45c0,7.401,6.001,13.403,13.403,13.403h294.869c7.401,0,13.403-6.002,13.403-13.403 v-214.45h41.544c7.401,0,13.403-6.002,13.403-13.403C471.785,248.152,465.785,242.15,458.382,242.15z M256,41.995 c27.673,0,50.188,22.515,50.188,50.188v18.616H205.811V92.183C205.812,64.51,228.327,41.995,256,41.995z M390.031,470.003H121.969 V265.93c46.32-16.389,72.67-73.924,82.704-125.61c0.379-0.862,0.677-1.768,0.87-2.714h100.915c0.192,0.945,0.489,1.85,0.869,2.711 c7.098,36.569,22.368,76.051,47.1,101.833H181.389c-7.403,0-13.403,6.002-13.403,13.403c0,7.401,6.001,13.403,13.403,13.403h208.643 V470.003z"/> </g>
</svg>