<!DOCTYPE svg PUBLIC "-//W3C//DTD SVG 1.1//EN" "http://www.w3.org/Graphics/SVG/1.1/DTD/svg11.dtd">
<!-- Uploaded to: SVG Repo, www.svgrepo.com, Transformed by: SVG Repo Mixer Tools -->
<svg height="64px" width="64px" version="1.1" id="Layer_1" xmlns="http://www.w3.org/2000/svg" xmlns:xlink="http://www.w3.org/1999/xlink" viewBox="0 0 512 512" xml:space="preserve" fill="#000000">
<g id="SVGRepo_bgCarrier" stroke-width="0"/>
<g id="SVGRepo_tracerCarrier" stroke-linecap="round" stroke-linejoin="round"/>
<g id="SVGRepo_iconCarrier"> <path style="fill:#8EBA3F;" d="M274.572,154.159c-0.769-0.772-1.388-1.694-1.806-2.724c-12.397-30.448-5.451-65.15,17.693-88.406 c23.144-23.259,57.677-30.239,87.974-17.781c1.025,0.419,1.945,1.041,2.714,1.815c0.767,0.771,1.386,1.693,1.806,2.723 c12.397,30.448,5.451,65.15-17.693,88.409c-23.144,23.256-57.677,30.235-87.974,17.778 C276.258,155.552,275.34,154.93,274.572,154.159z"/> <path style="fill:#9DDD00;" d="M378.434,45.248c-30.297-12.459-64.829-5.478-87.974,17.781 c-23.145,23.256-30.09,57.958-17.693,88.406c0.418,1.03,1.037,1.952,1.806,2.724L381.147,47.063 C380.378,46.289,379.459,45.667,378.434,45.248z"/> <path style="fill:#8EBA3F;" d="M237.428,154.161c-0.768,0.773-1.685,1.395-2.713,1.812c-30.297,12.461-64.83,5.48-87.974-17.778 c-23.142-23.259-30.089-57.962-17.693-88.407c0.42-1.03,1.037-1.954,1.807-2.725c0.769-0.774,1.689-1.394,2.714-1.815 c30.297-12.459,64.83-5.478,87.974,17.781c23.144,23.258,30.089,57.96,17.693,88.406 C238.816,152.465,238.197,153.389,237.428,154.161z"/> <path style="fill:#9DDD00;" d="M129.048,49.788c-12.396,30.446-5.449,65.148,17.693,88.407 c23.144,23.258,57.677,30.238,87.974,17.778c1.027-0.417,1.945-1.039,2.713-1.812L130.854,47.063 C130.085,47.834,129.468,48.758,129.048,49.788z"/> <path style="fill:#8EBA3F;" d="M256,155.802c-1.087,0-2.174-0.215-3.195-0.646c-30.188-12.72-49.696-42.193-49.696-75.084 c0-32.893,19.507-62.366,49.696-75.086c1.021-0.43,2.109-0.646,3.195-0.646s2.173,0.215,3.195,0.646 c30.188,12.722,49.696,42.193,49.696,75.086c0,32.892-19.507,62.366-49.696,75.084C258.173,155.586,257.087,155.802,256,155.802z"/> <path style="fill:#9DDD00;" d="M252.805,4.985c-30.188,12.722-49.696,42.193-49.696,75.086c0,32.892,19.507,62.366,49.696,75.084 c1.021,0.43,2.109,0.646,3.195,0.646V4.338C254.913,4.338,253.826,4.554,252.805,4.985z"/> <path style="fill:#FF5E3E;" d="M428.432,285.959c0,122.441-103.458,221.702-172.432,221.702 c-65.141,0-172.432-99.261-172.432-221.702c0-122.442,77.201-158.54,172.432-158.54 C351.233,127.419,428.432,163.517,428.432,285.959z"/> <path style="fill:#8C6239;" d="M351.956,412.865c-19.126,0-36.314,8.31-48.198,21.53c-11.884-13.22-29.073-21.53-48.197-21.53 c-19.126,0-36.314,8.31-48.197,21.53c-11.883-13.22-29.073-21.53-48.197-21.53c-11.222,0-21.771,2.871-30.979,7.906 c37.047,52.824,89.656,86.89,127.812,86.89c40.188,0,92.077-33.707,128.393-86.055C374.848,416.057,363.777,412.865,351.956,412.865 z"/> <g> <path style="fill:#B72F18;" d="M118.692,242.696c-4.61,0-8.348,3.737-8.348,8.347v12.588c0,4.61,3.738,8.347,8.348,8.347 s8.348-3.737,8.348-8.347v-12.588C127.041,246.433,123.302,242.696,118.692,242.696z"/> <path style="fill:#B72F18;" d="M173.615,242.696c-4.61,0-8.348,3.737-8.348,8.347v12.588c0,4.61,3.738,8.347,8.348,8.347 s8.348-3.737,8.348-8.347v-12.588C181.964,246.433,178.225,242.696,173.615,242.696z"/> <path style="fill:#B72F18;" d="M228.539,242.696c-4.611,0-8.348,3.737-8.348,8.347v12.588c0,4.61,3.738,8.347,8.348,8.347 s8.348-3.737,8.348-8.347v-12.588C236.887,246.433,233.149,242.696,228.539,242.696z"/> <path style="fill:#B72F18;" d="M283.462,242.696c-4.61,0-8.348,3.737-8.348,8.347v12.588c0,4.61,3.738,8.347,8.348,8.347 c4.611,0,8.348-3.737,8.348-8.347v-12.588C291.81,246.433,288.072,242.696,283.462,242.696z"/> <path style="fill:#B72F18;" d="M338.385,242.696c-4.61,0-8.348,3.737-8.348,8.347v12.588c0,4.61,3.738,8.347,8.348,8.347 c4.611,0,8.348-3.737,8.348-8.347v-12.588C346.733,246.433,342.995,242.696,338.385,242.696z"/> <path style="fill:#B72F18;" d="M393.308,242.696c-4.61,0-8.348,3.737-8.348,8.347v12.588c0,4.61,3.738,8.347,8.348,8.347 c4.61,0,8.348-3.737,8.348-8.347v-12.588C401.656,246.433,397.918,242.696,393.308,242.696z"/> <path style="fill:#B72F18;" d="M146.154,180.836c-4.61,0-8.348,3.737-8.348,8.348v12.587c0,4.611,3.738,8.348,8.348,8.348 c4.611,0,8.348-3.737,8.348-8.348v-12.587C154.502,184.574,150.765,180.836,146.154,180.836z"/> <path style="fill:#B72F18;" d="M201.077,180.836c-4.61,0-8.348,3.737-8.348,8.348v12.587c0,4.611,3.738,8.348,8.348,8.348 s8.348-3.737,8.348-8.348v-12.587C209.425,184.574,205.687,180.836,201.077,180.836z"/> <path style="fill:#B72F18;" d="M256,180.836c-4.61,0-8.348,3.737-8.348,8.348v12.587c0,4.611,3.738,8.348,8.348,8.348 s8.348-3.737,8.348-8.348v-12.587C264.348,184.574,260.61,180.836,256,180.836z"/> <path style="fill:#B72F18;" d="M310.923,180.836c-4.61,0-8.348,3.737-8.348,8.348v12.587c0,4.611,3.738,8.348,8.348,8.348 c4.61,0,8.348-3.737,8.348-8.348v-12.587C319.271,184.574,315.533,180.836,310.923,180.836z"/> <path style="fill:#B72F18;" d="M365.847,180.836c-4.611,0-8.348,3.737-8.348,8.348v12.587c0,4.611,3.738,8.348,8.348,8.348 c4.61,0,8.348-3.737,8.348-8.348v-12.587C374.195,184.574,370.457,180.836,365.847,180.836z"/> <path style="fill:#B72F18;" d="M173.615,360.287c-4.61,0-8.348,3.738-8.348,8.348v12.587c0,4.611,3.738,8.348,8.348,8.348 s8.348-3.737,8.348-8.348v-12.587C181.964,364.025,178.225,360.287,173.615,360.287z"/> <path style="fill:#B72F18;" d="M228.539,360.287c-4.611,0-8.348,3.738-8.348,8.348v12.587c0,4.611,3.738,8.348,8.348,8.348 s8.348-3.737,8.348-8.348v-12.587C236.887,364.025,233.149,360.287,228.539,360.287z"/> <path style="fill:#B72F18;" d="M283.462,360.287c-4.61,0-8.348,3.738-8.348,8.348v12.587c0,4.611,3.738,8.348,8.348,8.348 c4.611,0,8.348-3.737,8.348-8.348v-12.587C291.81,364.025,288.072,360.287,283.462,360.287z"/> <path style="fill:#B72F18;" d="M338.385,360.287c-4.61,0-8.348,3.738-8.348,8.348v12.587c0,4.611,3.738,8.348,8.348,8.348 c4.611,0,8.348-3.737,8.348-8.348v-12.587C346.733,364.025,342.995,360.287,338.385,360.287z"/> <path style="fill:#B72F18;" d="M146.154,300.333c-4.61,0-8.348,3.737-8.348,8.348v12.587c0,4.611,3.738,8.348,8.348,8.348 c4.611,0,8.348-3.737,8.348-8.348v-12.587C154.502,304.069,150.765,300.333,146.154,300.333z"/> <path style="fill:#B72F18;" d="M201.077,300.333c-4.61,0-8.348,3.737-8.348,8.348v12.587c0,4.611,3.738,8.348,8.348,8.348 s8.348-3.737,8.348-8.348v-12.587C209.425,304.069,205.687,300.333,201.077,300.333z"/> <path style="fill:#B72F18;" d="M256,300.333c-4.61,0-8.348,3.737-8.348,8.348v12.587c0,4.611,3.738,8.348,8.348,8.348 s8.348-3.737,8.348-8.348v-12.587C264.348,304.069,260.61,300.333,256,300.333z"/> <path style="fill:#B72F18;" d="M310.923,300.333c-4.61,0-8.348,3.737-8.348,8.348v12.587c0,4.611,3.738,8.348,8.348,8.348 c4.61,0,8.348-3.737,8.348-8.348v-12.587C319.271,304.069,315.533,300.333,310.923,300.333z"/> <path style="fill:#B72F18;" d="M365.847,300.333c-4.611,0-8.348,3.737-8.348,8.348v12.587c0,4.611,3.738,8.348,8.348,8.348 c4.61,0,8.348-3.737,8.348-8.348v-12.587C374.195,304.069,370.457,300.333,365.847,300.333z"/> </g> <path style="opacity:0.1;enable-background:new ;" d="M130.226,285.959c0-112.268,64.908-151.938,149.104-157.758 c-7.631-0.528-15.415-0.783-23.329-0.783c-95.232,0-172.432,36.098-172.432,158.54C83.568,408.4,190.859,507.662,256,507.662 c7.587,0,15.592-1.204,23.831-3.505C215.21,485.541,130.226,394.932,130.226,285.959z"/> <path style="fill:#FFC529;" d="M63.961,179.739c-1.137,0-2.197-0.58-2.811-1.537c-9.851-15.363-17.516-23.064-32.802-32.962 c-0.95-0.616-1.523-1.671-1.523-2.803c0-1.133,0.574-2.187,1.523-2.803c15.287-9.898,22.951-17.6,32.802-32.964 c0.613-0.957,1.674-1.537,2.811-1.537c1.138,0,2.197,0.58,2.811,1.537c9.851,15.364,17.515,23.066,32.801,32.964 c0.951,0.616,1.525,1.671,1.525,2.803c0,1.133-0.574,2.187-1.525,2.803c-15.286,9.898-22.95,17.599-32.801,32.962 C66.158,179.159,65.099,179.739,63.961,179.739z"/> <path style="fill:#F9EE73;" d="M26.332,253.004c-0.888,0-1.741-0.354-2.367-0.983L0.972,228.916c-1.296-1.302-1.296-3.408,0-4.711 l22.991-23.104c0.627-0.63,1.479-0.983,2.367-0.983c0.889,0,1.741,0.354,2.367,0.983l22.992,23.104c1.297,1.302,1.297,3.408,0,4.711 l-22.99,23.104C28.072,252.65,27.221,253.004,26.332,253.004z"/> <path style="fill:#FFC529;" d="M448.039,179.739c-1.138,0-2.197-0.58-2.811-1.537c-9.852-15.363-17.516-23.064-32.802-32.962 c-0.951-0.616-1.525-1.671-1.525-2.803c0-1.133,0.574-2.187,1.525-2.803c15.287-9.898,22.95-17.6,32.802-32.964 c0.613-0.957,1.673-1.537,2.811-1.537c1.137,0,2.196,0.58,2.811,1.537c9.851,15.364,17.516,23.066,32.801,32.964 c0.951,0.616,1.525,1.671,1.525,2.803c0,1.133-0.574,2.187-1.525,2.803c-15.286,9.898-22.95,17.599-32.801,32.962 C450.235,179.159,449.177,179.739,448.039,179.739z"/> <path style="fill:#F9EE73;" d="M485.668,253.004c-0.888,0-1.74-0.354-2.367-0.983l-22.989-23.104c-1.297-1.303-1.297-3.408,0-4.711 l22.992-23.104c0.627-0.63,1.479-0.983,2.367-0.983c0.888,0,1.74,0.354,2.367,0.983l22.991,23.104c1.296,1.303,1.296,3.41,0,4.711 l-22.994,23.104C487.407,252.65,486.556,253.004,485.668,253.004L485.668,253.004z"/> </g>
</svg>