<svg width="200" height="200" viewBox="0 0 200 200" fill="none" xmlns="http://www.w3.org/2000/svg">
<path d="M66.6667 16.667L133.333 25.0003V183.334L66.6667 175V16.667Z" fill="#ECF0F1"/>
<path d="M16.6667 25.0003L66.6667 16.667V175L16.6667 183.334V25.0003Z" fill="#BDC3C7"/>
<path d="M133.333 25.0003L183.333 16.667V175L133.333 183.334V25.0003Z" fill="#BDC3C7"/>
<path d="M25 33.3333L66.6667 25V166.667L25 175V33.3333Z" fill="#27AE60"/>
<path d="M66.6667 25L133.333 33.3333V175L66.6667 166.667V25Z" fill="#2ECC71"/>
<path d="M108.333 8.33301C94.525 8.33301 83.3334 19.5263 83.3334 33.333C83.3334 47.1397 94.525 58.333 108.333 58.333C122.142 58.333 133.333 47.1397 133.333 33.333C133.333 19.5263 122.142 8.33301 108.333 8.33301ZM108.333 24.9997C112.933 24.9997 116.667 28.7305 116.667 33.333C116.667 37.9355 112.933 41.6663 108.333 41.6663C103.733 41.6663 100 37.9355 100 33.333C100 28.7305 103.733 24.9997 108.333 24.9997Z" fill="#C0392B"/>
<path d="M175 166.667L133.333 175V33.3333L175 25V166.667Z" fill="#27AE60"/>
<path d="M47.3958 28.334L28.125 32.5007L66.6667 73.3332V49.1673L47.3958 28.334Z" fill="#F39C12"/>
<path d="M175 150L133.333 158.333V108.333L175 83.333V150Z" fill="#F39C12"/>
<path d="M175 166.667L133.333 175V125L175 100V166.667Z" fill="#2980B9"/>
<path d="M66.6667 116.666L133.333 108.333V158.333L66.6667 150V116.666Z" fill="#F1C40F"/>
<path d="M66.6667 133.333L133.333 125V175L66.6667 166.667V133.333Z" fill="#3498DB"/>
<path d="M25 141.667L66.6667 116.667V150L25 158.334V141.667Z" fill="#F39C12"/>
<path d="M25 158.333L66.6667 133.333V166.666L25 175V158.333Z" fill="#2980B9"/>
<path d="M66.6667 73.3397V49.1855L100 121.35H87.7584L66.6667 73.3397Z" fill="#F1C40F"/>
<path d="M108.333 0C89.925 0 75 15 75 33.3333C75 39.1667 76.59 44.1669 79.2967 49.1669C79.7458 50.0002 80.2175 50.8329 80.7292 51.6663L108.333 100L135.933 51.6663C136.358 50.8329 136.725 50 137.108 50L137.367 49.1669C140.075 44.1669 141.667 39.1667 141.667 33.3333C141.667 15 126.742 0 108.333 0ZM108.333 16.6667C117.542 16.6667 125 24.1667 125 33.3333C125 42.5 117.542 50 108.333 50C99.125 50 91.6667 42.5 91.6667 33.3333C91.6667 24.1667 99.125 16.6667 108.333 16.6667Z" fill="#E74C3C"/>
</svg>
