<svg width="300" height="300" viewBox="0 0 300 300" fill="none" xmlns="http://www.w3.org/2000/svg">
<g clip-path="url(#clip0_45_556)">
<path d="M55.166 148.315V293.667C55.166 297.151 58.0166 300.001 61.4994 300.001H238.499C241.982 300.001 244.832 297.151 244.832 293.667V148.315H55.166Z" fill="#F9EEB7"/>
<path d="M158.7 95.7754L175.692 103.981H210.375V71.2346C210.375 69.4926 209.091 68.6876 207.522 69.4452L158.7 93.0215C157.132 93.7785 157.132 95.0178 158.7 95.7754Z" fill="#85CCA2"/>
<path d="M127.8 148.315C127.794 148.392 127.777 148.466 127.777 148.544V296.833C127.777 298.575 129.202 300 130.944 300H169.056C170.798 300 172.223 298.575 172.223 296.833V148.544C172.223 148.466 172.205 148.392 172.199 148.315H127.8Z" fill="#AADDC0"/>
<path d="M124.308 103.981L141.3 95.7754C142.868 95.0178 142.868 93.7785 141.3 93.0209L92.4767 69.4446C90.9082 68.687 89.625 69.4926 89.625 71.2341V103.98L124.308 103.981Z" fill="#85CCA2"/>
<path d="M169.909 84.6643C169.909 81.1809 167.058 78.3309 163.576 78.3309H136.426C132.942 78.3309 130.092 81.1809 130.092 84.6643V103.98H169.91V84.6643H169.909Z" fill="#AADDC0"/>
<path opacity="0.1" d="M74.98 293.666V148.315H55.166V293.667C55.166 297.151 58.0166 300.001 61.4994 300.001H81.3128C77.83 299.999 74.98 297.149 74.98 293.666Z" fill="black"/>
<path d="M244.97 200.797C246.712 200.797 248.137 202.222 248.137 203.964V241.415C248.137 243.157 246.712 244.582 244.97 244.582H55.0308C53.2888 244.582 51.8638 243.157 51.8638 241.415V203.964C51.8638 202.222 53.2888 200.797 55.0308 200.797H244.97Z" fill="#85CCA2"/>
<path opacity="0.1" d="M71.6784 241.414V203.963C71.6784 202.221 73.1034 200.796 74.8448 200.796H55.0308C53.2888 200.796 51.8638 202.221 51.8638 203.963V241.414C51.8638 243.156 53.2888 244.581 55.0308 244.581H74.8442C73.104 244.581 71.6784 243.155 71.6784 241.414Z" fill="black"/>
<path d="M261.921 144.797C261.921 148.28 259.071 151.13 255.588 151.13H44.4124C40.929 151.13 38.0796 148.28 38.0796 144.797V106.761C38.0796 103.278 40.9296 100.428 44.4124 100.428H255.587C259.071 100.428 261.92 103.278 261.92 106.761V144.797H261.921Z" fill="#FF8163"/>
<path opacity="0.1" d="M57.893 144.797V106.761C57.893 103.278 60.7436 100.428 64.2264 100.428H44.4124C40.929 100.428 38.0796 103.278 38.0796 106.761V144.797C38.0796 148.28 40.9296 151.13 44.4124 151.13H64.2264C60.7436 151.131 57.893 148.281 57.893 144.797Z" fill="black"/>
<path d="M150 270.714C148.495 270.714 147.048 270.118 145.981 269.051L106.768 229.912C101.224 224.387 98.1714 217.036 98.1714 209.217C98.1714 201.399 101.224 194.047 106.769 188.519C112.312 182.991 119.683 179.945 127.523 179.945C135.364 179.945 142.735 182.991 148.277 188.519L150 190.239L151.723 188.519C157.268 182.991 164.636 179.945 172.48 179.945C180.32 179.945 187.689 182.991 193.236 188.519C198.775 194.047 201.83 201.399 201.83 209.217C201.83 217.036 198.775 224.386 193.236 229.916L154.021 269.052C152.955 270.118 151.509 270.714 150 270.714Z" fill="#E84731"/>
<g opacity="0.1">
<path d="M159.176 262.553L119.963 223.414C114.419 217.888 111.366 210.538 111.366 202.718C111.366 194.9 114.419 187.549 119.964 182.021C120.48 181.506 121.017 181.02 121.564 180.549C115.997 181.688 110.879 184.418 106.769 188.519C101.224 194.047 98.1709 201.398 98.1709 209.216C98.1709 217.036 101.224 224.386 106.768 229.911L145.981 269.051C147.048 270.117 148.494 270.713 150 270.713C151.508 270.713 152.954 270.117 154.019 269.051L159.914 263.168C159.654 262.984 159.405 262.782 159.176 262.553Z" fill="black"/>
</g>
<path d="M134.874 44.9396C129.364 48.7575 125.804 52.3142 121.983 57.822C121.175 58.9868 119.456 58.9868 118.648 57.822C114.827 52.3142 111.268 48.7575 105.756 44.9396C104.59 44.1316 104.59 42.4107 105.756 41.6027C111.268 37.7847 114.827 34.2281 118.648 28.7203C119.456 27.5554 121.175 27.5554 121.983 28.7203C125.805 34.2281 129.364 37.7847 134.874 41.6027C136.04 42.4113 136.04 44.1316 134.874 44.9396Z" fill="#FFC529"/>
<path d="M148.779 20.9267L140.037 12.1921C139.245 11.4011 139.245 10.1173 140.037 9.32689L148.777 0.592928C149.568 -0.1975 150.849 -0.1975 151.64 0.592928L160.381 9.32689C161.173 10.1179 161.173 11.4011 160.381 12.1921L151.64 20.9267C150.851 21.7171 149.57 21.7171 148.779 20.9267Z" fill="#FFC529"/>
<path d="M183.709 59.5341L174.968 50.8001C174.176 50.0091 174.176 48.7259 174.968 47.9349L183.708 39.2009C184.499 38.4105 185.78 38.4105 186.572 39.2009L195.313 47.9355C196.105 48.7265 196.105 50.0103 195.313 50.8007L186.573 59.5346C185.781 60.3251 184.5 60.3251 183.709 59.5341Z" fill="#FFC529"/>
<path d="M215.43 151.13L261.649 104.935C260.859 102.335 258.436 100.428 255.588 100.428H252.719L201.991 151.13H215.43Z" fill="#FFA08D"/>
<path d="M181.818 151.131L232.547 100.428H219.108L168.379 151.131H181.818Z" fill="#FFA08D"/>
<path d="M134.772 151.131H148.21L198.938 100.428H185.499L134.772 151.131Z" fill="#FFA08D"/>
<path d="M101.163 151.131H114.601L165.329 100.428H151.892L101.163 151.131Z" fill="#FFA08D"/>
<path d="M80.9912 151.131L131.719 100.428H118.28L67.5527 151.131H80.9912Z" fill="#FFA08D"/>
<path d="M84.6693 100.428L38.3745 146.701C39.1872 149.261 41.5919 151.13 44.412 151.13H47.3815L98.1078 100.428H84.6693Z" fill="#FFA08D"/>
<path d="M175.339 100.425H124.67V151.125H175.339V100.425Z" fill="#85CCA2"/>
</g>
<defs>
<clipPath id="clip0_45_556">
<rect width="300" height="300" fill="white"/>
</clipPath>
</defs>
</svg>
